<svg width="40" height="40" viewBox="0 0 40 40" fill="none" xmlns="http://www.w3.org/2000/svg">
<g clip-path="url(#clip0_341_1540)">
<path d="M8.75 0C9.08152 0 9.39946 0.131696 9.63388 0.366117C9.8683 0.600537 10 0.918479 10 1.25V2.5H30V1.25C30 0.918479 30.1317 0.600537 30.3661 0.366117C30.6005 0.131696 30.9185 0 31.25 0C31.5815 0 31.8995 0.131696 32.1339 0.366117C32.3683 0.600537 32.5 0.918479 32.5 1.25V2.5H35C36.3261 2.5 37.5979 3.02678 38.5355 3.96447C39.4732 4.90215 40 6.17392 40 7.5V35C40 36.3261 39.4732 37.5979 38.5355 38.5355C37.5979 39.4732 36.3261 40 35 40H5C3.67392 40 2.40215 39.4732 1.46447 38.5355C0.526784 37.5979 0 36.3261 0 35V7.5C0 6.17392 0.526784 4.90215 1.46447 3.96447C2.40215 3.02678 3.67392 2.5 5 2.5H7.5V1.25C7.5 0.918479 7.6317 0.600537 7.86612 0.366117C8.10054 0.131696 8.41848 0 8.75 0ZM5 5C4.33696 5 3.70107 5.26339 3.23223 5.73223C2.76339 6.20107 2.5 6.83696 2.5 7.5V10H37.5V7.5C37.5 6.83696 37.2366 6.20107 36.7678 5.73223C36.2989 5.26339 35.663 5 35 5H5ZM37.5 12.5H2.5V35C2.5 35.663 2.76339 36.2989 3.23223 36.7678C3.70107 37.2366 4.33696 37.5 5 37.5H35C35.663 37.5 36.2989 37.2366 36.7678 36.7678C37.2366 36.2989 37.5 35.663 37.5 35V12.5Z" fill="#505050"/>
<path d="M27.5 18.75C27.5 18.4185 27.6317 18.1005 27.8661 17.8661C28.1005 17.6317 28.4185 17.5 28.75 17.5H31.25C31.5815 17.5 31.8995 17.6317 32.1339 17.8661C32.3683 18.1005 32.5 18.4185 32.5 18.75V21.25C32.5 21.5815 32.3683 21.8995 32.1339 22.1339C31.8995 22.3683 31.5815 22.5 31.25 22.5H28.75C28.4185 22.5 28.1005 22.3683 27.8661 22.1339C27.6317 21.8995 27.5 21.5815 27.5 21.25V18.75Z" fill="#505050"/>
</g>
<defs>
<clipPath id="clip0_341_1540">
<rect width="40" height="40" fill="white"/>
</clipPath>
</defs>
</svg>
