<svg width="36" height="36" viewBox="0 0 36 36" fill="none" xmlns="http://www.w3.org/2000/svg">
<path d="M1.125 22.275C1.42337 22.275 1.70952 22.3935 1.9205 22.6045C2.13147 22.8155 2.25 23.1016 2.25 23.4V29.025C2.25 29.6217 2.48705 30.194 2.90901 30.616C3.33097 31.0379 3.90326 31.275 4.5 31.275H31.5C32.0967 31.275 32.669 31.0379 33.091 30.616C33.5129 30.194 33.75 29.6217 33.75 29.025V23.4C33.75 23.1016 33.8685 22.8155 34.0795 22.6045C34.2905 22.3935 34.5766 22.275 34.875 22.275C35.1734 22.275 35.4595 22.3935 35.6705 22.6045C35.8815 22.8155 36 23.1016 36 23.4V29.025C36 30.2185 35.5259 31.3631 34.682 32.207C33.8381 33.0509 32.6935 33.525 31.5 33.525H4.5C3.30653 33.525 2.16193 33.0509 1.31802 32.207C0.474106 31.3631 0 30.2185 0 29.025V23.4C0 23.1016 0.118526 22.8155 0.329505 22.6045C0.540483 22.3935 0.826631 22.275 1.125 22.275Z" fill="white"/>
<path d="M17.2035 26.6715C17.308 26.7763 17.4321 26.8594 17.5688 26.9161C17.7055 26.9728 17.852 27.002 18 27.002C18.1479 27.002 18.2945 26.9728 18.4311 26.9161C18.5678 26.8594 18.692 26.7763 18.7965 26.6715L25.5465 19.9215C25.7577 19.7103 25.8764 19.4237 25.8764 19.125C25.8764 18.8263 25.7577 18.5397 25.5465 18.3285C25.3352 18.1173 25.0487 17.9986 24.75 17.9986C24.4512 17.9986 24.1647 18.1173 23.9535 18.3285L19.125 23.1593V3.375C19.125 3.07663 19.0064 2.79048 18.7955 2.5795C18.5845 2.36853 18.2983 2.25 18 2.25C17.7016 2.25 17.4154 2.36853 17.2045 2.5795C16.9935 2.79048 16.875 3.07663 16.875 3.375V23.1593L12.0465 18.3285C11.8352 18.1173 11.5487 17.9986 11.25 17.9986C10.9512 17.9986 10.6647 18.1173 10.4535 18.3285C10.2422 18.5397 10.1235 18.8263 10.1235 19.125C10.1235 19.4237 10.2422 19.7103 10.4535 19.9215L17.2035 26.6715Z" fill="white"/>
</svg>
