<svg width="41" height="41" viewBox="0 0 41 41" fill="none" xmlns="http://www.w3.org/2000/svg">
<path d="M22.3117 3.84375C21.8311 3.36335 21.1795 3.09348 20.5 3.09348C19.8205 3.09348 19.1688 3.36335 18.6883 3.84375L1.65535 20.8741C1.53622 20.9932 1.44172 21.1347 1.37725 21.2903C1.31278 21.446 1.2796 21.6128 1.2796 21.7812C1.2796 21.9497 1.31278 22.1165 1.37725 22.2722C1.44172 22.4278 1.53622 22.5693 1.65535 22.6884C1.89593 22.929 2.22223 23.0641 2.56247 23.0641C2.73094 23.0641 2.89776 23.0309 3.0534 22.9665C3.20905 22.902 3.35047 22.8075 3.4696 22.6884L20.5 5.65544L37.5303 22.6884C37.7709 22.929 38.0972 23.0641 38.4375 23.0641C38.7777 23.0641 39.104 22.929 39.3446 22.6884C39.5852 22.4478 39.7203 22.1215 39.7203 21.7812C39.7203 21.441 39.5852 21.1147 39.3446 20.8741L33.3125 14.8446V6.40625C33.3125 6.06644 33.1775 5.74055 32.9372 5.50027C32.6969 5.25999 32.371 5.125 32.0312 5.125H29.4687C29.1289 5.125 28.803 5.25999 28.5627 5.50027C28.3225 5.74055 28.1875 6.06644 28.1875 6.40625V9.71956L22.3117 3.84375Z" fill="white"/>
<path d="M20.5 8.43831L35.875 23.8133V34.5938C35.875 35.6132 35.47 36.5908 34.7492 37.3117C34.0283 38.0325 33.0507 38.4375 32.0312 38.4375H8.96875C7.94932 38.4375 6.97165 38.0325 6.25081 37.3117C5.52997 36.5908 5.125 35.6132 5.125 34.5938V23.8133L20.5 8.43831Z" fill="white"/>
</svg>
