<svg width="42" height="42" viewBox="0 0 42 42" fill="none" xmlns="http://www.w3.org/2000/svg">
<g clip-path="url(#clip0_9_42)">
<path d="M30.8227 27.1532C33.3644 23.6848 34.5029 19.3845 34.0102 15.1127C33.5176 10.841 31.4301 6.91275 28.1655 4.11395C24.901 1.31515 20.7 -0.147807 16.4031 0.0177597C12.1062 0.183327 8.03028 1.96521 4.99074 5.00692C1.95121 8.04862 0.172248 12.1258 0.00975574 16.4228C-0.152737 20.7199 1.31323 24.9198 4.11436 28.1824C6.91549 31.4449 10.8452 33.5295 15.1173 34.0191C19.3895 34.5088 23.6889 33.3672 27.1555 30.823H27.1529C27.2299 30.928 27.3157 31.0286 27.4102 31.1249L37.5164 41.2311C38.0086 41.7237 38.6763 42.0005 39.3727 42.0008C40.069 42.001 40.7369 41.7246 41.2295 41.2324C41.722 40.7402 41.9989 40.0725 41.9991 39.3762C41.9994 38.6798 41.723 38.0119 41.2308 37.5194L31.1245 27.4131C31.0307 27.3181 30.9298 27.2329 30.8227 27.1532ZM31.4999 17.0627C31.4999 18.9587 31.1265 20.8361 30.4009 22.5877C29.6754 24.3394 28.6119 25.9309 27.2713 27.2716C25.9306 28.6122 24.339 29.6757 22.5874 30.4012C20.8358 31.1268 18.9584 31.5002 17.0624 31.5002C15.1665 31.5002 13.2891 31.1268 11.5374 30.4012C9.78579 29.6757 8.19421 28.6122 6.85356 27.2716C5.51292 25.9309 4.44946 24.3394 3.7239 22.5877C2.99835 20.8361 2.62492 18.9587 2.62492 17.0627C2.62492 13.2337 4.14601 9.56144 6.85356 6.85388C9.56112 4.14632 13.2334 2.62523 17.0624 2.62523C20.8915 2.62523 24.5637 4.14632 27.2713 6.85388C29.9788 9.56144 31.4999 13.2337 31.4999 17.0627Z" fill="white"/>
</g>
<defs>
<clipPath id="clip0_9_42">
<rect width="42" height="42" fill="white"/>
</clipPath>
</defs>
</svg>
